<svg xmlns="http://www.w3.org/2000/svg" xmlns:xlink="http://www.w3.org/1999/xlink" width="1080" zoomAndPan="magnify" viewBox="0 0 810 809.999993" height="1080" preserveAspectRatio="xMidYMid meet" version="1.0"><defs><clipPath id="1b825b7ba3"><path d="M 472.335938 365.007812 L 552.316406 365.007812 L 552.316406 444.992188 L 472.335938 444.992188 Z M 472.335938 365.007812 " clip-rule="nonzero"/></clipPath><clipPath id="b5bfd79b92"><path d="M 512.328125 365.007812 C 490.242188 365.007812 472.335938 382.914062 472.335938 405 C 472.335938 427.085938 490.242188 444.992188 512.328125 444.992188 C 534.414062 444.992188 552.316406 427.085938 552.316406 405 C 552.316406 382.914062 534.414062 365.007812 512.328125 365.007812 Z M 512.328125 365.007812 " clip-rule="nonzero"/></clipPath><clipPath id="edc040455b"><path d="M 221.46875 365.007812 L 301.449219 365.007812 L 301.449219 444.992188 L 221.46875 444.992188 Z M 221.46875 365.007812 " clip-rule="nonzero"/></clipPath><clipPath id="cec8757eab"><path d="M 261.460938 365.007812 C 239.375 365.007812 221.46875 382.914062 221.46875 405 C 221.46875 427.085938 239.375 444.992188 261.460938 444.992188 C 283.546875 444.992188 301.449219 427.085938 301.449219 405 C 301.449219 382.914062 283.546875 365.007812 261.460938 365.007812 Z M 261.460938 365.007812 " clip-rule="nonzero"/></clipPath><clipPath id="fa6480d862"><path d="M 612.945312 81 L 769.253906 81 L 769.253906 740.460938 L 612.945312 740.460938 Z M 612.945312 81 " clip-rule="nonzero"/></clipPath><clipPath id="32826e7439"><path d="M 34.28125 58.117188 L 739.28125 58.117188 L 739.28125 763.117188 L 34.28125 763.117188 Z M 34.28125 58.117188 " clip-rule="nonzero"/></clipPath><clipPath id="22f505906b"><path d="M 386.890625 58.117188 C 192.152344 58.117188 34.28125 215.988281 34.28125 410.730469 C 34.28125 605.472656 192.152344 763.339844 386.890625 763.339844 C 581.632812 763.339844 739.503906 605.472656 739.503906 410.730469 C 739.503906 215.988281 581.632812 58.117188 386.890625 58.117188 Z M 386.890625 58.117188 " clip-rule="nonzero"/></clipPath><clipPath id="fb16f20634"><path d="M 81 104.40625 L 682.183594 104.40625 L 682.183594 705.589844 L 81 705.589844 Z M 81 104.40625 " clip-rule="nonzero"/></clipPath><clipPath id="e79c17e88f"><path d="M 381.589844 104.40625 C 215.578125 104.40625 81 238.988281 81 405 C 81 571.011719 215.578125 705.589844 381.589844 705.589844 C 547.605469 705.589844 682.183594 571.011719 682.183594 405 C 682.183594 238.988281 547.605469 104.40625 381.589844 104.40625 Z M 381.589844 104.40625 " clip-rule="nonzero"/></clipPath><clipPath id="cc3f5716cd"><path d="M 368.785156 58.117188 L 405 58.117188 L 405 273.101562 L 368.785156 273.101562 Z M 368.785156 58.117188 " clip-rule="nonzero"/></clipPath><clipPath id="8c302cbe94"><path d="M 368.785156 545.816406 L 405 545.816406 L 405 763.34375 L 368.785156 763.34375 Z M 368.785156 545.816406 " clip-rule="nonzero"/></clipPath></defs><g clip-path="url(#1b825b7ba3)"><g clip-path="url(#b5bfd79b92)"><path fill="#f8a12e" d="M 472.335938 365.007812 L 552.316406 365.007812 L 552.316406 444.992188 L 472.335938 444.992188 Z M 472.335938 365.007812 " fill-opacity="1" fill-rule="nonzero"/></g></g><g clip-path="url(#edc040455b)"><g clip-path="url(#cec8757eab)"><path fill="#f8a12e" d="M 221.46875 365.007812 L 301.449219 365.007812 L 301.449219 444.992188 L 221.46875 444.992188 Z M 221.46875 365.007812 " fill-opacity="1" fill-rule="nonzero"/></g></g><g clip-path="url(#fa6480d862)"><path fill="#f8a12e" d="M 612.945312 81 L 769.253906 81 L 769.253906 740.429688 L 612.945312 740.429688 Z M 612.945312 81 " fill-opacity="1" fill-rule="nonzero"/></g><g clip-path="url(#32826e7439)"><g clip-path="url(#22f505906b)"><path stroke-linecap="butt" transform="matrix(0.75, 0, 0, 0.75, 34.281158, 58.118931)" fill="none" stroke-linejoin="miter" d="M 470.14598 -0.00232423 C 210.494925 -0.00232423 0.000122966 210.492478 0.000122966 470.148741 C 0.000122966 729.805004 210.494925 940.294598 470.14598 940.294598 C 729.802243 940.294598 940.297045 729.805004 940.297045 470.148741 C 940.297045 210.492478 729.802243 -0.00232423 470.14598 -0.00232423 Z M 470.14598 -0.00232423 " stroke="#f8a12e" stroke-width="200" stroke-opacity="1" stroke-miterlimit="4"/></g></g><g clip-path="url(#fb16f20634)"><g clip-path="url(#e79c17e88f)"><path stroke-linecap="butt" transform="matrix(0.75, 0, 0, 0.75, 80.999999, 104.407565)" fill="none" stroke-linejoin="miter" d="M 400.786479 -0.00175353 C 179.43751 -0.00175353 0.000000766667 179.440964 0.000000766667 400.789933 C 0.000000766667 622.138903 179.43751 801.576412 400.786479 801.576412 C 622.140657 801.576412 801.578166 622.138903 801.578166 400.789933 C 801.578166 179.440964 622.140657 -0.00175353 400.786479 -0.00175353 Z M 400.786479 -0.00175353 " stroke="#f8a12e" stroke-width="200" stroke-opacity="1" stroke-miterlimit="4"/></g></g><g clip-path="url(#cc3f5716cd)"><path fill="#f8a12e" d="M 368.785156 58.117188 L 405 58.117188 L 405 273.136719 L 368.785156 273.136719 Z M 368.785156 58.117188 " fill-opacity="1" fill-rule="nonzero"/></g><g clip-path="url(#8c302cbe94)"><path fill="#f8a12e" d="M 368.785156 545.816406 L 405 545.816406 L 405 763.378906 L 368.785156 763.378906 Z M 368.785156 545.816406 " fill-opacity="1" fill-rule="nonzero"/></g></svg>